# xmcd
# 
# Track frame offsets:
#     150
#     17653
#     35024
#     53458
#     71506
#     84875
#     98382
#     113773
#     125666
#     145678
#     164003
#     183907
#     201756
#     216949
#     237712
#     251500
#     285726
#     304649
# 
# Disc length: 4286
# 
# Revision: 17
# Processed by: cddbd v1.5.2PL0 Copyright (c) Steve Scherf et al.
# Submitted via: fre:ac v1.0.27
# 
DISCID=f710bc12
DTITLE=Norah Jones - Featuring
DYEAR=2010
DGENRE=New Age
TTITLE0=Love Me (ft. The Little Willies)
TTITLE1=Virginia Moon (ft. Foo Fighters)
TTITLE2=Turn Them (ft. Sean Bones)
TTITLE3=Baby It's Cold Outside (ft. Willie Nelson)
TTITLE4=Bull Rider (ft. Sasha Dobson)
TTITLE5=Ruler Of My Heart (ft. Dirty Dozen Brass Band and Robert Randolph)
TTITLE6=The Best Part (ft. El Madmo)
TTITLE7=Take Off Your Cool (ft. Outkast)
TTITLE8=Life Is Better (ft. Q-Tip)
TTITLE9=Soon The New Day (ft. Talib Kweli)
TTITLE10=Little Lou, Ugly Jack, Prophet John (ft. Belle and Sebastian)
TTITLE11=Here We Go Again (ft. Ray Charles)
TTITLE12=Loretta (ft. Gillian Welch and David Rawlings)
TTITLE13=Dear John (ft. Ryan Adams)
TTITLE14=Creepin' In (ft. Dolly Parton)
TTITLE15=Court and Spark (ft. Herbie Hancock)
TTITLE16=More Than This (ft. Charlie Hunter)
TTITLE17=Blue Bayou (ft. M. Ward)
EXTD=YEAR: 2010
EXTT0=
EXTT1=
EXTT2=
EXTT3=
EXTT4=
EXTT5=
EXTT6=
EXTT7=
EXTT8=
EXTT9=
EXTT10=
EXTT11=
EXTT12=
EXTT13=
EXTT14=
EXTT15=
EXTT16=
EXTT17=
PLAYORDER=
